# xmcd
#
# Track frame offsets:
#	150
#	18391
#	30196
#	45547
#	60462
#	77092
#	96799
#	109379
#	125369
#	139959
#	157945
#	175266
#	192781
#
# Disc length: 2921 seconds
#
# Revision: 1
# Processed by: cddbd v1.4PL0 Copyright (c) Steve Scherf et al.
# Submitted via: audiograbber 1.81.01
#
DISCID=9e0b670d
DTITLE=Pius Holzer - Ich gah zum Felsu
DYEAR=2003
DGENRE=Country Gospel Wallisertytsch
TTITLE0=Ich bi unnerwägs zum Himmul - On My Way To Heaven
TTITLE1=Aer isch myne Halt - I Shall Not Be Moved
TTITLE2=Ich gah zum Felsu - I Go To The Rock
TTITLE3=Ich leggu a Chrona a - I Shall Wear A Crown
TTITLE4=An tolle Sieges Chranz - Palms Of Victory
TTITLE5=Träne sind a Sprach, wa Gott versteit - Tears Are A Language God Unders
TTITLE5=tands
TTITLE6=Mach der kei Sorge meh - Worry No More
TTITLE7=Chumm, wier pryse ysche Herr - Glory Be
TTITLE8=Der erschtusch Stei - First Stone
TTITLE9=Aes brüücht a Hüfo Liebi - It Takes A Lot of Courage
TTITLE10=Verpass das nit - Dont Miss The Boat
TTITLE11=Wier hei alle Grund dankbar z sy - Reasons Enough
TTITLE12=Wie gross bisch Dü - How Great Thou Art
EXTD=
EXTT0=
EXTT1=
EXTT2=
EXTT3=
EXTT4=
EXTT5=
EXTT6=
EXTT7=
EXTT8=
EXTT9=
EXTT10=
EXTT11=
EXTT12=
PLAYORDER=
